<svg width="300" height="300" viewBox="0 0 300 300" fill="none" xmlns="http://www.w3.org/2000/svg">
<path d="M59.5097 240.529C24.454 205.473 6.92618 187.945 2.04762 167.146C-0.594488 155.881 -0.594488 144.158 2.04762 132.893C6.92618 112.093 24.454 94.5652 59.5097 59.5095C94.5653 24.4538 112.093 6.92605 132.893 2.0475C144.158 -0.594612 155.881 -0.594609 167.146 2.0475C187.945 6.92606 205.473 24.4538 240.529 59.5095C275.585 94.5652 293.113 112.093 297.991 132.893C300.633 144.158 300.633 155.881 297.991 167.146C293.113 187.945 275.585 205.473 240.529 240.529C205.473 275.585 187.945 293.112 167.146 297.991C155.881 300.633 144.158 300.633 132.893 297.991C112.093 293.112 94.5653 275.585 59.5097 240.529Z" fill="#FF0000"/>
<g clip-path="url(#clip0_5_39)">
<path d="M79.7107 200.132C46.3773 166.799 29.7107 150.132 29.7107 129.421C29.7107 108.711 46.3773 92.044 79.7107 58.7107C113.044 25.3774 129.711 8.71069 150.421 8.71069C171.132 8.71069 187.799 25.3774 221.132 58.7107C254.465 92.044 271.132 108.711 271.132 129.421C271.132 150.132 254.465 166.799 221.132 200.132C187.799 233.465 171.132 250.132 150.421 250.132C129.711 250.132 113.044 233.465 79.7107 200.132Z" fill="white"/>
</g>
<defs>
<clipPath id="clip0_5_39">
<rect width="243" height="243" fill="white" transform="translate(29 8)"/>
</clipPath>
</defs>
</svg>
