<svg width="785" height="248" viewBox="0 0 785 248" fill="none" xmlns="http://www.w3.org/2000/svg">
<path d="M187.592 0.0799866V178H158.408V56.144L104.136 178H83.912L29.384 56.144V178H0.200001V0.0799866H31.688L94.152 139.6L156.36 0.0799866H187.592ZM355.23 104.016C355.23 109.307 354.889 114.085 354.206 118.352H246.43C247.283 129.616 251.465 138.661 258.974 145.488C266.483 152.315 275.699 155.728 286.622 155.728C302.323 155.728 313.417 149.157 319.902 136.016H351.39C347.123 148.987 339.358 159.653 328.094 168.016C317.001 176.208 303.177 180.304 286.622 180.304C273.139 180.304 261.022 177.317 250.27 171.344C239.689 165.2 231.326 156.667 225.182 145.744C219.209 134.651 216.222 121.851 216.222 107.344C216.222 92.8373 219.123 80.1227 224.926 69.2C230.899 58.1067 239.177 49.5733 249.758 43.6C260.51 37.6267 272.798 34.64 286.622 34.64C299.934 34.64 311.795 37.5413 322.206 43.344C332.617 49.1467 340.723 57.3387 346.526 67.92C352.329 78.3307 355.23 90.3627 355.23 104.016ZM324.766 94.8C324.595 84.048 320.755 75.4293 313.246 68.944C305.737 62.4587 296.435 59.216 285.342 59.216C275.273 59.216 266.654 62.4587 259.486 68.944C252.318 75.2587 248.051 83.8773 246.686 94.8H324.766ZM413.134 57.424C417.401 50.256 423.033 44.7093 430.03 40.784C437.198 36.688 445.646 34.64 455.374 34.64V64.848H447.95C436.515 64.848 427.811 67.7493 421.838 73.552C416.035 79.3547 413.134 89.424 413.134 103.76V178H383.95V36.944H413.134V57.424ZM539.032 34.64C549.955 34.64 559.597 36.8587 567.96 41.296C576.493 45.5627 583.149 50.9387 587.928 57.424V36.944H617.368V180.304C617.368 193.275 614.637 204.795 609.176 214.864C603.715 225.104 595.779 233.125 585.368 238.928C575.128 244.731 562.84 247.632 548.504 247.632C529.389 247.632 513.517 243.109 500.888 234.064C488.259 225.189 481.091 213.072 479.384 197.712H508.312C510.531 205.051 515.224 210.939 522.392 215.376C529.731 219.984 538.435 222.288 548.504 222.288C560.28 222.288 569.752 218.704 576.92 211.536C584.259 204.368 587.928 193.957 587.928 180.304V156.752C582.979 163.408 576.237 169.04 567.704 173.648C559.341 178.085 549.784 180.304 539.032 180.304C526.744 180.304 515.48 177.232 505.24 171.088C495.171 164.773 487.149 156.069 481.176 144.976C475.373 133.712 472.472 120.997 472.472 106.832C472.472 92.6667 475.373 80.1227 481.176 69.2C487.149 58.2773 495.171 49.8293 505.24 43.856C515.48 37.712 526.744 34.64 539.032 34.64ZM587.928 107.344C587.928 97.616 585.88 89.168 581.784 82C577.859 74.832 572.653 69.3707 566.168 65.616C559.683 61.8613 552.685 59.984 545.176 59.984C537.667 59.984 530.669 61.8613 524.184 65.616C517.699 69.2 512.408 74.576 508.312 81.744C504.387 88.7413 502.424 97.104 502.424 106.832C502.424 116.56 504.387 125.093 508.312 132.432C512.408 139.771 517.699 145.403 524.184 149.328C530.84 153.083 537.837 154.96 545.176 154.96C552.685 154.96 559.683 153.083 566.168 149.328C572.653 145.573 577.859 140.112 581.784 132.944C585.88 125.605 587.928 117.072 587.928 107.344ZM784.98 104.016C784.98 109.307 784.639 114.085 783.956 118.352H676.18C677.033 129.616 681.215 138.661 688.724 145.488C696.233 152.315 705.449 155.728 716.372 155.728C732.073 155.728 743.167 149.157 749.652 136.016H781.14C776.873 148.987 769.108 159.653 757.844 168.016C746.751 176.208 732.927 180.304 716.372 180.304C702.889 180.304 690.772 177.317 680.02 171.344C669.439 165.2 661.076 156.667 654.932 145.744C648.959 134.651 645.972 121.851 645.972 107.344C645.972 92.8373 648.873 80.1227 654.676 69.2C660.649 58.1067 668.927 49.5733 679.508 43.6C690.26 37.6267 702.548 34.64 716.372 34.64C729.684 34.64 741.545 37.5413 751.956 43.344C762.367 49.1467 770.473 57.3387 776.276 67.92C782.079 78.3307 784.98 90.3627 784.98 104.016ZM754.516 94.8C754.345 84.048 750.505 75.4293 742.996 68.944C735.487 62.4587 726.185 59.216 715.092 59.216C705.023 59.216 696.404 62.4587 689.236 68.944C682.068 75.2587 677.801 83.8773 676.436 94.8H754.516Z" fill="#FF0000"/>
</svg>
